<svg width="125" height="36" xmlns="http://www.w3.org/2000/svg" xmlns:xlink="http://www.w3.org/1999/xlink"><defs><path d="M47.236 20.88V5.558h-5.794V1.4h16.782v4.158H52.43V20.88h-5.194zm17.138-.971c-1.476-.812-2.61-1.975-3.403-3.489-.792-1.514-1.189-3.283-1.189-5.308 0-2.024.401-3.784 1.203-5.28a8.412 8.412 0 0 1 3.403-3.461c1.467-.812 3.193-1.218 5.18-1.218 1.986 0 3.712.406 5.18 1.218a8.24 8.24 0 0 1 3.375 3.461c.784 1.496 1.175 3.256 1.175 5.28 0 2.025-.391 3.794-1.175 5.308-.784 1.514-1.909 2.677-3.376 3.489-1.467.811-3.193 1.217-5.18 1.217-1.986 0-3.717-.406-5.193-1.217zm8.624-4.255c.83-1.04 1.244-2.553 1.244-4.542 0-1.97-.415-3.47-1.244-4.5-.83-1.03-1.973-1.546-3.43-1.546-1.458 0-2.597.51-3.417 1.532-.82 1.022-1.23 2.526-1.23 4.514 0 2.007.41 3.525 1.23 4.556.82 1.03 1.959 1.546 3.417 1.546 1.457 0 2.6-.52 3.43-1.56zM82.305 1.4h9.266c2.223 0 3.945.533 5.166 1.6 1.22 1.067 1.831 2.513 1.831 4.337 0 1.806-.62 3.247-1.858 4.323-1.24 1.076-2.952 1.614-5.139 1.614h-4.127v7.606h-5.139V1.4zm8.583 8.044c1.931 0 2.897-.684 2.897-2.052 0-.694-.232-1.218-.697-1.574-.465-.355-1.198-.533-2.2-.533h-3.444v4.159h3.444zm29.055-.548a5.627 5.627 0 0 1 2.214 2.216c.528.949.793 2.043.793 3.284 0 1.35-.324 2.53-.97 3.543-.648 1.012-1.568 1.792-2.761 2.34-1.194.546-2.583.82-4.169.82-1.257 0-2.505-.192-3.744-.575-1.24-.383-2.233-.884-2.98-1.504l1.586-3.64c1.676 1.168 3.416 1.752 5.22 1.752 1.02 0 1.777-.206 2.269-.616.492-.41.738-1.044.738-1.901 0-.84-.26-1.482-.779-1.93-.52-.446-1.244-.67-2.173-.67a5.93 5.93 0 0 0-1.654.26 8.595 8.595 0 0 0-1.653.67h-2.816V1.4h12.847v3.885h-7.872v3.338c.747-.347 1.64-.52 2.679-.52 1.202 0 2.277.264 3.225.793z" id="b"/><filter x="-4.3%" y="-12.5%" width="108.6%" height="135%" filterUnits="objectBoundingBox" id="a"><feOffset dy="1" in="SourceAlpha" result="shadowOffsetOuter1"/><feGaussianBlur stdDeviation="1" in="shadowOffsetOuter1" result="shadowBlurOuter1"/><feColorMatrix values="0 0 0 0 0 0 0 0 0 0 0 0 0 0 0 0 0 0 0.5 0" in="shadowBlurOuter1"/></filter></defs><g fill="none" fill-rule="evenodd"><path d="M29.581 0H4.226A4.227 4.227 0 0 0 0 4.23v21.15a4.227 4.227 0 0 0 4.226 4.23H12.5l4.404 4.23 4.225-4.23h8.452a4.227 4.227 0 0 0 4.226-4.23V4.23A4.227 4.227 0 0 0 29.581 0zm-5.583 16.069l-1.418 1.537-5.677 6.154-5.677-6.154-1.419-1.537c-1.567-1.7-1.567-4.454 0-6.154 1.568-1.7 4.11-1.7 5.677 0l1.419 1.538 1.418-1.538c1.568-1.7 4.11-1.7 5.677 0 1.57 1.7 1.57 4.454 0 6.154z" fill="#D0021B" fill-rule="nonzero"/><use fill="#000" filter="url(#a)" xlink:href="#b"/><use fill="#FFF" xlink:href="#b"/><path d="M42.404 33.84v-6.764H44.7c.68 0 1.196.128 1.55.384.355.256.532.629.532 1.12 0 .813-.54 1.389-1.62 1.727 1.263.308 1.894.928 1.894 1.86 0 .54-.184.953-.554 1.241-.37.288-.9.432-1.592.432h-2.506zm1.324-3.949h.333c.396 0 .71-.097.943-.292.233-.195.35-.46.35-.795 0-.311-.094-.522-.281-.633-.188-.112-.541-.167-1.062-.167h-.283v1.887zm0 2.99h.301c.59 0 .998-.064 1.222-.19.223-.127.335-.358.335-.693 0-.344-.15-.63-.45-.86-.3-.228-.678-.342-1.134-.342h-.274v2.084zm8.648.79a6.478 6.478 0 0 1-1.827.283c-.837 0-1.497-.237-1.981-.713-.484-.475-.726-1.124-.726-1.947 0-.777.221-1.402.664-1.876.443-.474 1.028-.71 1.756-.71.733 0 1.269.231 1.607.694.338.463.507 1.196.507 2.199h-3.11c.092.956.617 1.435 1.576 1.435.453 0 .964-.105 1.534-.316v.95zm-3.128-2.834h1.799c0-.856-.275-1.284-.826-1.284-.56 0-.885.428-.973 1.284zm4.392 2.843v-.992c.67.28 1.242.42 1.717.42.554 0 .831-.188.831-.566 0-.244-.228-.457-.685-.64l-.456-.183c-.496-.2-.851-.417-1.064-.649a1.221 1.221 0 0 1-.32-.859c0-.475.181-.845.544-1.108.362-.264.869-.395 1.52-.395.408 0 .893.059 1.457.178v.95c-.542-.189-.991-.283-1.347-.283-.56 0-.84.174-.84.521 0 .229.206.422.62.58l.393.151c.588.223.996.448 1.226.677.23.228.345.522.345.882 0 .472-.196.855-.587 1.15-.391.293-.9.44-1.527.44a6.384 6.384 0 0 1-1.827-.274zm8.004.133c-.322.094-.576.141-.762.141-1.172 0-1.758-.548-1.758-1.645v-2.642h-.562v-.845h.562v-.846l1.351-.155v1h1.073v.846h-1.073v2.464c0 .615.252.923.754.923.116 0 .254-.021.415-.064v.823zm4.288.027v-6.764h2.908c1.047 0 1.85.278 2.406.834.557.556.836 1.358.836 2.406 0 1.115-.295 1.982-.886 2.599-.59.617-1.417.925-2.48.925h-2.784zm1.406-.96h1.05c.74 0 1.291-.205 1.655-.614.364-.41.546-1.033.546-1.867 0-.646-.146-1.184-.438-1.614-.201-.295-.443-.5-.726-.612-.284-.113-.696-.17-1.238-.17h-.849v4.877zm8.465.42c-.45.436-.933.654-1.447.654-.439 0-.795-.134-1.069-.402-.274-.268-.41-.615-.41-1.042 0-.554.22-.982.664-1.282.443-.3 1.076-.45 1.901-.45h.361v-.457c0-.521-.297-.782-.89-.782-.527 0-1.06.15-1.598.448v-.932a5.107 5.107 0 0 1 1.817-.347c1.312 0 1.968.522 1.968 1.567v2.221c0 .393.126.59.379.59.045 0 .105-.006.178-.018l.032.758a2.696 2.696 0 0 1-.758.128c-.554 0-.91-.218-1.069-.653h-.059zm0-.726v-1.02h-.32c-.873 0-1.31.275-1.31.823 0 .186.063.343.19.469.126.126.282.19.468.19.316 0 .64-.154.972-.462zm5.625 1.239c-.322.094-.577.141-.762.141-1.172 0-1.758-.548-1.758-1.645v-2.642h-.562v-.845h.562v-.846l1.351-.155v1h1.073v.846H80.26v2.464c0 .615.251.923.754.923.115 0 .254-.021.415-.064v.823zm1.206.027v-5.018h1.351v5.018h-1.351zm0-5.864v-1.129h1.351v1.13h-1.351zm3.04 5.864v-5.018h1.352v.946c.441-.707 1.01-1.06 1.708-1.06.447 0 .8.141 1.059.425.259.283.388.67.388 1.16v3.547h-1.352v-3.213c0-.57-.188-.855-.566-.855-.429 0-.841.304-1.237.91v3.158h-1.352zm6.178 1.558l.11-.982c.557.256 1.088.384 1.593.384.5 0 .86-.107 1.082-.32.222-.213.334-.56.334-1.038v-.685c-.33.722-.873 1.083-1.63 1.083-.597 0-1.07-.223-1.42-.67-.35-.446-.526-1.05-.526-1.812 0-.801.197-1.443.59-1.926.392-.483.914-.724 1.566-.724.51 0 .984.207 1.42.621l.141-.507h1.215v3.83c0 .764-.047 1.316-.14 1.654a1.755 1.755 0 0 1-.54.864c-.451.39-1.086.585-1.905.585-.581 0-1.211-.119-1.89-.357zm3.119-3.427V30.12c-.326-.369-.667-.553-1.023-.553-.341 0-.612.155-.813.466-.2.31-.301.728-.301 1.252 0 .981.315 1.472.945 1.472.435 0 .832-.262 1.192-.786zm5.716 1.81V32.62c.728.304 1.35.457 1.867.457.363 0 .648-.081.857-.242a.788.788 0 0 0 .312-.659.818.818 0 0 0-.196-.555c-.13-.15-.379-.33-.744-.537l-.452-.251c-.606-.342-1.034-.668-1.283-.98a1.702 1.702 0 0 1-.375-1.095c0-.558.205-1.006.614-1.344.41-.338.95-.507 1.624-.507.538 0 1.146.078 1.821.233v1.083c-.69-.259-1.237-.388-1.639-.388-.31 0-.56.069-.746.208a.648.648 0 0 0-.281.546c0 .186.065.349.196.489s.378.312.74.516l.484.27c.651.365 1.1.702 1.347 1.01.246.308.37.682.37 1.124 0 .628-.233 1.12-.699 1.476-.466.357-1.108.535-1.927.535-.542 0-1.172-.076-1.89-.228zm5.721.059v-5.018h1.352v5.018h-1.352zm0-5.864v-1.129h1.352v1.13h-1.352zm5.625 5.837c-.322.094-.577.141-.762.141-1.172 0-1.758-.548-1.758-1.645v-2.642h-.562v-.845h.562v-.846l1.351-.155v1h1.073v.846h-1.073v2.464c0 .615.251.923.754.923.115 0 .254-.021.415-.064v.823zm5.287-.142a6.478 6.478 0 0 1-1.826.283c-.837 0-1.498-.237-1.982-.713-.483-.475-.725-1.124-.725-1.947 0-.777.221-1.402.664-1.876.443-.474 1.028-.71 1.755-.71.734 0 1.27.231 1.608.694.337.463.506 1.196.506 2.199h-3.109c.091.956.616 1.435 1.575 1.435.454 0 .965-.105 1.534-.316v.95zm-3.127-2.834h1.799c0-.856-.276-1.284-.827-1.284-.56 0-.884.428-.972 1.284zm4.392 2.843v-.992c.67.28 1.242.42 1.717.42.554 0 .83-.188.83-.566 0-.244-.227-.457-.684-.64l-.457-.183c-.496-.2-.85-.417-1.063-.649a1.221 1.221 0 0 1-.32-.859c0-.475.181-.845.543-1.108.363-.264.87-.395 1.52-.395.409 0 .894.059 1.457.178v.95c-.542-.189-.99-.283-1.347-.283-.56 0-.84.174-.84.521 0 .229.207.422.621.58l.393.151c.587.223.996.448 1.226.677.23.228.345.522.345.882 0 .472-.196.855-.587 1.15-.391.293-.9.44-1.527.44a6.384 6.384 0 0 1-1.827-.274z" fill="#FFF"/></g></svg>