<svg width="80" height="22" xmlns="http://www.w3.org/2000/svg"><g fill="#830F29" fill-rule="evenodd"><path d="M1.705 7.325l-.269 1.673c-.146.928-.289 1.433-.427 1.515a.295.295 0 0 1-.208.048c-.008 0-.069-.028-.183-.085-.065-.033-.098-.09-.098-.171a.209.209 0 0 0-.036-.098 3.525 3.525 0 0 1-.391-.965C-.046 8.697-.03 8.2.142 7.752c.049-.138.134-.3.256-.488.375-.595.643-.998.806-1.21.017-.032.191-.211.525-.537.538-.53.831-.814.88-.855.57-.472.985-.781 1.246-.928a6.03 6.03 0 0 0 .464-.293c.203-.122.362-.216.476-.281.269-.147.863-.375 1.783-.684.652-.212 1.385-.313 2.199-.305.399 0 .753.008 1.062.024.163.008.497.077 1.002.208.203.049.623.211 1.258.488.179.082.35.171.513.269.057.04.134.118.232.232.04.049.098.126.171.232.073.098.13.171.171.22.252.301.427.676.525 1.124.073.317.049.814-.073 1.49a5.524 5.524 0 0 1-.134.293 5.194 5.194 0 0 1-.086.159c-.024.105-.122.248-.293.427-.4.415-.725.704-.977.867-.424.293-.798.497-1.124.61-.146.058-.358.14-.635.245-.277.114-.48.196-.61.244-.147.05-.473.155-.978.318-.537.171-1.323.31-2.357.415-.163.017-.541.057-1.136.122-.04.147-.061.228-.061.245.847 2.556 2.048 4.771 3.603 6.644.855 1.042 1.637 1.8 2.345 2.272.269.179.545.284.83.317.383.033.648.045.795.037.374-.033.793-.163 1.258-.39.431-.213.855-.559 1.27-1.04a.748.748 0 0 0 .11-.158c.097-.146.244-.2.44-.159.007 0 .032.004.073.013v.073c.073.187.008.41-.196.672-.073.097-.513.574-1.319 1.429-.277.293-.635.55-1.075.77-.105.048-.399.15-.879.304-.04.017-.187.053-.44.11-.488.106-1.022.025-1.6-.244-1.938-1.246-3.522-3.294-4.75-6.143-.286-.66-.717-2.004-1.295-4.031-.18.236-.273.358-.281.366-.05.074-.18.277-.391.611-.155.244-.285.444-.391.599-.09.13-.35.63-.782 1.502a2.425 2.425 0 0 0-.11.33 111.56 111.56 0 0 1-.342 1.184c-.049.204-.106.456-.17.758.007-.033-.005.093-.037.378 0 .008-.008.082-.025.22a1.218 1.218 0 0 1-.598-.11c-.057-.024-.11-.093-.159-.207-.204-.416-.338-.94-.403-1.576-.04-.407-.057-.867-.049-1.38.016-.472.191-.94.525-1.405.155-.211.379-.5.672-.867.334-.407.566-.696.696-.867.171-.228.493-.668.965-1.32l.428-.61c.203-.277.35-.484.44-.623.358-.488.655-1.01.89-1.563.017-.04.058-.135.123-.281.057-.114.098-.208.122-.281.139-.375.15-.708.037-1.002-.041-.105-.033-.187.024-.244.05-.065.135-.085.257-.06.163.032.358.142.586.329.31.244.432.582.366 1.014-.122.773-.321 1.449-.598 2.027-.041.09-.09.212-.147.367l-.158.354c-.025.057-.061.13-.11.22a2.374 2.374 0 0 0-.11.22l-.037.134h.183a75.784 75.784 0 0 0 1.674-.342c.635-.147 1.168-.363 1.6-.648.114-.073.268-.187.464-.342.22-.17.378-.289.476-.354.269-.187.55-.525.843-1.013.211-.359.33-.713.354-1.063.024-.285.02-.509-.012-.672a1.383 1.383 0 0 0-.379-.72 15.162 15.162 0 0 0-.269-.294c-.285-.268-.68-.44-1.184-.513-.579-.08-1.022-.105-1.332-.073-1.294.155-2.064.273-2.308.354-1.498.489-2.659 1.454-3.48 2.895l-.575 1.014"/><path d="M16.984 11.844c.057-.049.143.004.257.159.04.065-.029.285-.208.66-.22.455-.517.814-.891 1.074-.53.358-1.047.53-1.552.513a8.49 8.49 0 0 1-1.27 1.49c-.733.7-1.343 1.091-1.832 1.173-.415.073-.83.024-1.246-.147-.61-.252-.952-.586-1.026-1.002-.09-.496-.052-1.074.11-1.734a5.3 5.3 0 0 1 1.038-2.113c1.214-1.482 2.174-2.284 2.883-2.406.545-.098.953.134 1.221.696.09.188.15.383.183.586.033.188.037.277.013.27-.603-.253-1.23-.107-1.881.439-.521.432-1.002 1.062-1.441 1.893-.375.806-.599 1.51-.672 2.113-.041.35.097.574.415.672.244.073.472.07.684-.013.448-.162 1.03-.68 1.747-1.55.122-.147.236-.294.342-.44-.334-.065-.554-.293-.66-.684-.065-.277.016-.562.244-.855.236-.301.51-.46.819-.477.317-.008.545.135.684.428v.012l.048.098c.017.04.029.085.037.134.008.057.012.078.012.061.008.057.012.122.012.196v.085a.587.587 0 0 1-.024.183v.013a1.06 1.06 0 0 1-.061.244l-.012.012v.012a2.14 2.14 0 0 0 .586-.11c.342-.13.627-.386.855-.77.374-.593.57-.899.586-.915"/><path d="M26.755 11.93c.114-.18.236-.27.367-.27.13-.007.158.107.085.343-.269.798-.944 1.775-2.027 2.93-.066.066-.228.245-.489.538-.195.212-.35.375-.464.489a8.592 8.592 0 0 1-.782.684c-.195.155-.358.244-.488.269-.644.122-1.05-.082-1.222-.611-.106-.318-.122-.684-.049-1.1.082-.415.688-1.485 1.82-3.212-.114.05-.293.171-.537.367-.244.195-.525.435-.843.72-.326.294-.66.603-1.001.929-.342.334-.668.655-.977.965-.13.13-.342.44-.636.928a31.56 31.56 0 0 0-.464.77c-.146.195-.273.276-.378.244a.446.446 0 0 1-.245-.257c-.285-.684-.399-1.07-.342-1.16.041-.065.123-.18.245-.342.122-.171.268-.379.44-.623a116.3 116.3 0 0 0 1.6-2.333c.146-.212.264-.395.354-.55-.48.408-.99.863-1.527 1.368-.025.025-.86.97-2.504 2.834-.358.415-.615.74-.77.977-.056.098-.138.13-.244.098a.663.663 0 0 1-.293-.196.284.284 0 0 1-.049-.073c-.334-.318-.553-.66-.66-1.026-.007-.04.851-1.482 2.578-4.324.52-.855.953-1.591 1.295-2.21.325.13.541.541.647 1.233.073.489-.212 1.218-.855 2.187-.106.195-.24.431-.403.708a45.85 45.85 0 0 0-.306.513l.587-.708c.236-.277.48-.562.733-.855.236-.277.492-.57.769-.88a14.1 14.1 0 0 1 .745-.781c.236-.237.448-.432.635-.587.187-.163.33-.256.428-.28a.46.46 0 0 1 .403.097c.13.098.232.228.305.39.073.156.126.315.159.477a.756.756 0 0 1-.012.367c-.041.081-.16.277-.355.586-.203.31-.419.635-.647.977-.277.407-.578.843-.904 1.307l1.979-2.199.757-.806c.236-.252.468-.496.696-.733.212-.22.395-.398.55-.537.155-.147.26-.232.318-.256.13-.05.256-.025.378.073a1.18 1.18 0 0 1 .464.855.737.737 0 0 1-.11.452c-.09.106-.228.297-.415.574-.187.268-.39.578-.61.928-.229.35-.457.713-.685 1.087-.228.383-.427.741-.598 1.075-.171.326-.305.606-.403.843-.082.203-.114.378-.098.525.025.236.118.313.281.232.619-.293 1.397-.977 2.333-2.052.48-.545.96-1.205 1.441-1.979"/><path d="M34.425 11.783c.122.081.114.232-.024.452-2.011 3.143-3.44 4.714-4.287 4.714-.253 0-.505-.163-.757-.488-.22-.293-.33-.546-.33-.758v-.085c-.855.83-1.482 1.246-1.881 1.246-.342 0-.664-.13-.965-.391-.448-.383-.672-.806-.672-1.27 0-1.303.497-2.533 1.49-3.689 1.197-1.392 2.158-2.088 2.883-2.088.358 0 .66.252.904.757.097.187.158.354.183.5.032.277.04.408.024.391-.44-.382-.985-.297-1.636.257-.505.431-1.01 1.067-1.515 1.905a7.207 7.207 0 0 0-.72 2.125c-.05.245-.03.436.06.574a.344.344 0 0 0 .306.171c.44 0 1.026-.44 1.759-1.319l.024-.024c.106-.195.244-.513.415-.953.147-.415.298-.79.452-1.123.212-.472.379-.9.501-1.283.081.025.159.057.232.098.603.317.782.92.538 1.808-.066.26-.192.606-.38 1.038-.17.423-.272.688-.304.794a4.643 4.643 0 0 0-.281.806c-.065.17-.05.256.048.256.204 0 .709-.472 1.515-1.417.798-.96 1.49-1.913 2.076-2.858.106-.17.22-.22.342-.146"/><path d="M40.887 11.917c.114-.179.236-.269.366-.269.13-.008.159.106.085.342-.268.79-.944 1.767-2.027 2.932-.065.065-.228.24-.489.525-.195.22-.346.387-.451.5-.294.278-.554.506-.782.685-.204.154-.37.244-.5.268-.644.122-1.051-.08-1.222-.61-.106-.318-.118-.684-.037-1.1.073-.415.676-1.49 1.808-3.224a4.786 4.786 0 0 0-.538.379v-.013l-.806.697c-.016.016-.85.96-2.504 2.833-.366.415-.623.741-.77.977-.056.098-.138.13-.243.098a.663.663 0 0 1-.294-.195l-.06-.062c-.326-.325-.542-.671-.648-1.038-.008-.04.85-1.481 2.577-4.323.513-.847.945-1.584 1.295-2.211.325.139.541.554.647 1.246.073.488-.212 1.213-.855 2.174-.106.195-.24.432-.403.708-.17.285-.273.456-.305.513.163-.195.358-.431.586-.708.236-.277.48-.562.733-.855.09-.106.358-.395.806-.867.48-.497.757-.786.83-.868v.025l.355-.379c.211-.228.395-.407.55-.537.154-.147.26-.232.317-.257a.382.382 0 0 1 .379.061c.122.098.228.225.317.379.082.147.13.31.147.489a.735.735 0 0 1-.11.452 7.43 7.43 0 0 0-.416.574c-.179.268-.382.578-.61.928-.22.35-.444.712-.672 1.087-.228.383-.432.74-.61 1.075-.172.326-.306.606-.404.842-.081.204-.114.379-.097.526.024.228.118.305.28.232.62-.294 1.397-.977 2.333-2.052.48-.546.961-1.205 1.442-1.979"/><path d="M41.925 12.93l-.464 1.137c-.09.203-.143.513-.16.928-.016.285.05.517.196.696.155.188.375.244.66.171a1.72 1.72 0 0 0 .696-.354c.382-.326.782-.704 1.197-1.136 1.01-1.067 1.604-1.811 1.783-2.235.139-.31.285-.428.44-.354.26.122-.298.985-1.673 2.589-.562.66-.908 1.055-1.039 1.185-.423.407-.773.72-1.05.94a2.347 2.347 0 0 1-1.002.44c-.22.04-.435 0-.647-.122-.374-.204-.594-.35-.66-.44-.724-1.018-.667-2.3.172-3.847a10.097 10.097 0 0 1 1.746-2.32 3.02 3.02 0 0 1 1.014-.685c.554-.228.985-.15 1.295.232.513.62.72 1.246.622 1.881-.032.244-.183.525-.451.843-.286.35-.481.615-.587.794l-.28.464c-.204.065-.367-.037-.49-.305a1.571 1.571 0 0 1-.134-.501.524.524 0 0 1 .05-.293c.211-.4.32-.668.33-.806a1.066 1.066 0 0 0-.16-.623c-.122-.22-.224-.285-.305-.196-.163.163-.448.64-.855 1.43l-.244.488"/><path d="M46.554 14.067c-.09.212-.143.521-.159.928-.016.293.049.53.196.708.154.18.374.237.659.171.244-.056.476-.179.696-.366.383-.318.782-.696 1.197-1.136 1.01-1.067 1.604-1.808 1.783-2.223.139-.317.285-.44.44-.366.26.13-.297.993-1.673 2.59-.994 1.164-1.69 1.876-2.089 2.136-.39.245-.725.387-1.001.428-.245.04-.513-.012-.806-.159-.237-.122-.403-.252-.501-.39-.725-1.018-.668-2.3.17-3.848a9.99 9.99 0 0 1 1.747-2.333 3.28 3.28 0 0 1 1.014-.684c.554-.22.985-.142 1.295.232.586.709.794 1.336.623 1.881-.147.505-.579 1.144-1.295 1.918-.896.969-1.78 1.498-2.65 1.588a.564.564 0 0 1-.415-.135c-.147-.105-.09-.17.17-.195.594-.05 1.185-.395 1.771-1.038a6.997 6.997 0 0 0 1.222-1.845c.13-.284.097-.59-.098-.916-.18-.31-.322-.41-.427-.305-.367.374-.754.957-1.16 1.746-.164.326-.4.864-.71 1.613m24.892-8.159c-1.001.432-1.954.627-2.858.586-1.245-.057-2.377-.313-3.395-.77-.057-.032-.07-.04-.037-.024a.484.484 0 0 1-.073.061c-1.173 1.295-1.922 2.24-2.247 2.834-.367.562-.684 1.234-.953 2.015-.041.114-.114.306-.22.574-.098.245-.17.44-.22.587-.26.806-.476 1.592-.647 2.357a54.85 54.85 0 0 1-.159.72c-.081.318-.138.558-.17.721.007-.032-.025.191-.099.672l-.183 1.136c-.024.138-.049.268-.073.39-.04.18-.13.273-.269.281-.114.009-.22-.053-.317-.183a2.58 2.58 0 0 1-.061-.134.72.72 0 0 0-.061-.147 234.2 234.2 0 0 1-.635-1.148 2.415 2.415 0 0 0-.697-.818c-.114-.081-.138-.191-.073-.33.203-.496.48-1.331.83-2.504.326-1.083.62-1.913.88-2.491a16.43 16.43 0 0 1 2.7-4.116c.333-.375.846-.798 1.538-1.27-2.223-1.645-3.782-2.732-4.678-3.262-1.026-.61-1.958-.7-2.797-.268a2.92 2.92 0 0 0-1.306 1.368c-.074.146-.13.492-.171 1.038-.074.944.256 1.832.989 2.662.969 1.1 1.535 1.857 1.698 2.272.284.733.378 1.368.28 1.905-.065.383-.17.603-.317.66-.106.049-.188.029-.245-.061a2.087 2.087 0 0 0-.085-.183 5.069 5.069 0 0 0-.428-.672 9.888 9.888 0 0 1-.464-.66 406.8 406.8 0 0 1-.66-.965 14.95 14.95 0 0 1-.988-1.624c-.823-1.588-1.055-2.976-.696-4.165.024-.065.089-.248.195-.55.17-.48.537-.972 1.099-1.477.53-.472 1.34-.713 2.43-.72 1.157-.017 2.17.248 3.042.793 1.71 1.059 4.124 2.439 7.242 4.14.79.432 1.67.485 2.639.16.749-.261 1.221-.546 1.416-.856l.16.074c.504.456.22.92-.856 1.392"/><path d="M70.81 11.783c.122.081.114.232-.024.452-2.012 3.143-3.44 4.714-4.287 4.714-.253 0-.505-.163-.757-.488-.22-.293-.33-.546-.33-.758v-.085c-.855.83-1.483 1.246-1.881 1.246-.342 0-.664-.13-.965-.391-.448-.383-.672-.806-.672-1.27 0-1.303.497-2.533 1.49-3.689 1.197-1.392 2.158-2.088 2.883-2.088.358 0 .66.252.903.757.098.187.16.354.184.5.032.277.04.408.024.391-.44-.382-.985-.297-1.636.257-.506.431-1.01 1.067-1.515 1.905a7.2 7.2 0 0 0-.72 2.125c-.05.245-.03.436.06.574a.344.344 0 0 0 .306.171c.44 0 1.026-.44 1.759-1.319l.024-.024a9.3 9.3 0 0 0 .415-.953c.147-.415.297-.79.452-1.123.212-.472.379-.9.5-1.283.082.025.16.057.233.098.602.317.782.92.538 1.808-.066.26-.192.606-.38 1.038-.17.423-.272.688-.305.794a4.643 4.643 0 0 0-.28.806c-.066.17-.05.256.048.256.204 0 .709-.472 1.515-1.417.798-.96 1.49-1.913 2.076-2.858.106-.17.22-.22.342-.146"/><path d="M75.097 7.203c.073-.188.049-.391-.073-.611-.114-.228-.224-.248-.33-.061-.155.285-.297.558-.427.818-.188.4-.978 1.987-2.37 4.764a22.301 22.301 0 0 0 1.576-2.089c.594-.896.94-1.433 1.038-1.612.301-.562.496-.965.586-1.21m-3.762 6.034l-1.27 2.492a.645.645 0 0 0 .085.44c.171.154.473.085.904-.208.391-.269.79-.647 1.197-1.136.79-.96 1.478-1.913 2.064-2.858.098-.163.24-.187.428-.073.049.032.061.077.036.134.008-.008-.04.07-.146.232-1.23 1.946-2.194 3.237-2.895 3.872-1.018.928-1.95 1.054-2.796.379-.514-.408-.33-1.377.549-2.907a71.425 71.425 0 0 0 1.624-3.066c.147-.31.521-1.116 1.124-2.418.489-1.067.867-1.84 1.136-2.32.203-.375.318-.58.342-.612a.553.553 0 0 1 .39-.232c.302-.073.632.122.99.587.269.35.444.655.525.916.081.26.118.488.11.684-.024.268-.13.586-.317.952a12.21 12.21 0 0 1-.684 1.16c-.27.408-.562.823-.88 1.246a43.58 43.58 0 0 1-.904 1.148c-.024.033-.37.375-1.038 1.026-.195.196-.387.383-.574.562"/><path d="M75.012 14.067c-.09.212-.143.521-.159.928-.017.293.049.53.195.708.155.18.375.237.66.171.244-.056.476-.179.696-.366.383-.318.782-.696 1.197-1.136 1.01-1.067 1.604-1.808 1.783-2.223.139-.317.285-.44.44-.366.26.13-.297.993-1.674 2.59-.993 1.164-1.69 1.876-2.088 2.136-.39.245-.725.387-1.002.428-.244.04-.512-.012-.806-.159-.236-.122-.403-.252-.5-.39-.725-1.018-.668-2.3.17-3.848a9.99 9.99 0 0 1 1.747-2.333 3.28 3.28 0 0 1 1.014-.684c.554-.22.985-.142 1.295.232.586.709.793 1.336.623 1.881-.147.505-.579 1.144-1.295 1.918-.896.969-1.78 1.498-2.65 1.588a.564.564 0 0 1-.416-.135c-.146-.105-.09-.17.171-.195.594-.05 1.185-.395 1.771-1.038a6.997 6.997 0 0 0 1.222-1.845c.13-.284.097-.59-.098-.916-.18-.31-.322-.41-.428-.305-.366.374-.753.957-1.16 1.746-.163.326-.399.864-.708 1.613"/></g></svg>