<svg width="59" height="10" xmlns="http://www.w3.org/2000/svg"><defs><linearGradient x1="50%" y1="0%" x2="50%" y2="100%" id="a"><stop stop-color="#FCE43C" offset="0%"/><stop stop-color="#F8C41C" offset="100%"/></linearGradient></defs><path d="M1090.483 567.314l1.128 2.39a.54.54 0 0 0 .405.308l2.522.383c.442.067.618.635.299.96l-1.825 1.86a.58.58 0 0 0-.155.499l.43 2.626c.076.46-.386.811-.78.594l-2.256-1.24a.518.518 0 0 0-.502 0l-2.255 1.24c-.395.217-.857-.134-.782-.594l.431-2.626a.58.58 0 0 0-.155-.499l-1.825-1.86c-.32-.326-.143-.893.299-.96l2.522-.383a.54.54 0 0 0 .405-.308l1.128-2.39a.528.528 0 0 1 .966 0zm12 0l1.128 2.39a.54.54 0 0 0 .405.308l2.522.383c.442.067.618.635.299.96l-1.825 1.86a.58.58 0 0 0-.155.499l.43 2.626c.076.46-.386.811-.78.594l-2.256-1.24a.518.518 0 0 0-.502 0l-2.255 1.24c-.395.217-.857-.134-.782-.594l.431-2.626a.58.58 0 0 0-.155-.499l-1.825-1.86c-.32-.326-.143-.893.299-.96l2.522-.383a.54.54 0 0 0 .405-.308l1.128-2.39a.528.528 0 0 1 .966 0zm12 0l1.128 2.39a.54.54 0 0 0 .405.308l2.522.383c.442.067.618.635.299.96l-1.825 1.86a.58.58 0 0 0-.155.499l.43 2.626c.076.46-.386.811-.78.594l-2.256-1.24a.518.518 0 0 0-.502 0l-2.255 1.24c-.395.217-.857-.134-.782-.594l.431-2.626a.58.58 0 0 0-.155-.499l-1.825-1.86c-.32-.326-.143-.893.299-.96l2.522-.383a.54.54 0 0 0 .405-.308l1.128-2.39a.528.528 0 0 1 .966 0zm12 0l1.128 2.39a.54.54 0 0 0 .405.308l2.522.383c.442.067.618.635.299.96l-1.825 1.86a.58.58 0 0 0-.155.499l.43 2.626c.076.46-.386.811-.78.594l-2.256-1.24a.518.518 0 0 0-.502 0l-2.255 1.24c-.395.217-.857-.134-.782-.594l.431-2.626a.58.58 0 0 0-.155-.499l-1.825-1.86c-.32-.326-.143-.893.299-.96l2.522-.383a.54.54 0 0 0 .405-.308l1.128-2.39a.528.528 0 0 1 .966 0zm13 0l1.128 2.39a.54.54 0 0 0 .405.308l2.522.383c.442.067.618.635.299.96l-1.825 1.86a.58.58 0 0 0-.155.499l.43 2.626c.076.46-.386.811-.78.594l-2.256-1.24a.518.518 0 0 0-.502 0l-2.255 1.24c-.395.217-.857-.134-.782-.594l.431-2.626a.58.58 0 0 0-.155-.499l-1.825-1.86c-.32-.326-.143-.893.299-.96l2.522-.383a.54.54 0 0 0 .405-.308l1.128-2.39a.528.528 0 0 1 .966 0z" transform="translate(-1085 -567)" fill="url(#a)"/></svg>